<?xml version="1.0" standalone="no"?>
<!DOCTYPE svg PUBLIC "-//W3C//DTD SVG 20010904//EN"
 "http://www.w3.org/TR/2001/REC-SVG-20010904/DTD/svg10.dtd">
<svg version="1.0" xmlns="http://www.w3.org/2000/svg"
 width="1792.000000pt" height="373.000000pt" viewBox="0 0 1792.000000 373.000000"
 preserveAspectRatio="xMidYMid meet">

<g transform="translate(0.000000,373.000000) scale(0.100000,-0.100000)"
fill="#000000" stroke="none">
<path d="M6979 2946 c-31 -15 -59 -71 -59 -118 l0 -38 125 0 125 0 -24 48
c-44 87 -116 133 -167 108z"/>
<path d="M6615 2886 c51 -19 86 -61 135 -163 37 -79 38 -82 19 -88 -11 -4 -22
-5 -24 -3 -1 1 -21 41 -43 88 -50 105 -82 130 -164 130 -50 0 -59 -3 -82 -31
-21 -24 -26 -41 -26 -82 0 -80 17 -125 67 -179 l46 -49 -25 -27 c-14 -15 -79
-88 -145 -163 -162 -181 -234 -233 -368 -265 -63 -15 -88 -15 -241 -4 -199 15
-325 10 -444 -19 -298 -71 -517 -210 -659 -420 -104 -153 -160 -316 -168 -492
l-6 -116 -36 13 c-55 20 -86 17 -120 -12 -38 -32 -42 -78 -9 -119 22 -28 149
-95 180 -95 15 0 38 -27 38 -44 0 -3 -141 -7 -312 -8 l-313 -2 240 -7 c132 -4
268 -9 302 -10 33 -2 59 -1 56 4 -2 4 3 7 12 7 10 0 13 -5 9 -12 -6 -10 -5
-10 7 -1 11 9 359 12 1434 15 781 2 1390 4 1354 6 l-65 3 -68 74 c-37 41 -88
89 -114 107 -79 53 -234 182 -292 242 -57 59 -79 95 -80 134 0 20 25 0 138
-106 75 -71 172 -158 215 -194 77 -64 78 -64 225 -103 242 -63 303 -75 385
-75 68 0 77 2 77 18 0 34 -76 138 -146 198 -74 64 -123 112 -279 275 l-100
104 20 43 c11 24 39 81 62 125 l41 82 94 6 c148 10 316 60 380 114 16 13 44
32 63 41 25 12 35 23 35 40 0 12 5 26 10 29 6 3 10 -3 10 -15 0 -12 5 -18 10
-15 6 3 10 15 10 26 0 11 7 36 17 57 9 20 15 43 14 51 -4 22 9 62 18 57 15
-10 31 71 31 162 0 82 -3 96 -33 153 -27 54 -43 71 -107 114 -142 96 -442 216
-625 251 -114 21 -287 14 -394 -15 -40 -12 -77 -19 -81 -16 -4 2 -25 34 -46
71 -42 72 -88 110 -144 119 l-35 6 40 -15z m533 -411 c1 -11 -4 -29 -12 -40
-12 -16 -19 -18 -42 -10 -35 12 -43 44 -18 62 27 20 68 13 72 -12z m199 -761
c-3 -3 -12 -4 -19 -1 -8 3 -5 6 6 6 11 1 17 -2 13 -5z m-37 -8 c0 -4 -49 -16
-120 -31 -14 -2 0 4 30 15 53 18 90 25 90 16z m-2033 -222 c150 -48 253 -200
253 -373 0 -87 -29 -149 -110 -232 -47 -49 -52 -52 -20 -14 68 80 85 126 84
225 0 74 -4 95 -31 152 -57 123 -177 208 -321 230 -61 10 -70 14 -59 26 15 18
128 11 204 -14z m1073 -539 c69 -30 181 -70 248 -90 68 -19 143 -44 165 -55
l42 -20 -35 6 c-92 14 -272 59 -337 85 -95 38 -250 115 -259 130 -11 19 37 3
176 -56z"/>
<path d="M4878 2773 c-10 -2 -18 -10 -18 -18 0 -24 403 -35 427 -11 4 4 -1 14
-11 22 -16 11 -59 14 -200 13 -100 -1 -189 -3 -198 -6z"/>
<path d="M2880 2648 c0 -88 74 -405 116 -497 30 -67 89 -146 119 -159 17 -8
25 -23 30 -54 4 -24 15 -72 26 -108 28 -95 96 -439 113 -571 8 -63 22 -202 31
-309 18 -217 19 -222 38 -214 10 4 12 20 6 77 -4 40 -13 155 -19 257 -7 102
-18 223 -25 270 -24 152 -55 312 -75 379 -50 170 -71 235 -80 246 -6 7 -2 15
11 23 16 10 19 24 19 85 0 127 -57 286 -163 449 -96 150 -147 193 -147 126z"/>
<path d="M14787 2648 c-66 -142 -135 -359 -124 -391 2 -6 9 15 16 46 7 32 15
58 19 58 34 7 58 5 65 -5 6 -8 10 -8 14 2 6 16 31 15 49 -2 14 -15 19 -48 8
-59 -3 -3 -7 -27 -9 -54 -5 -87 14 -10 26 106 8 82 8 130 0 195 -19 138 -35
165 -64 104z m-35 -180 c-15 -15 -26 -4 -18 18 5 13 9 15 18 6 9 -9 9 -15 0
-24z m-30 -40 c-7 -7 -12 -8 -12 -2 0 14 12 26 19 19 2 -3 -1 -11 -7 -17z m39
-7 c6 10 9 6 9 -13 0 -20 -4 -26 -15 -22 -8 4 -15 16 -14 28 0 12 3 16 6 7 5
-11 7 -11 14 0z m36 -28 c-3 -10 -5 -4 -5 12 0 17 2 24 5 18 2 -7 2 -21 0 -30z
m-78 -9 c-6 -8 -17 -14 -23 -14 -6 0 -4 5 4 10 8 5 11 10 7 10 -5 0 -5 5 -2
10 4 6 11 8 16 4 6 -4 6 -11 -2 -20z"/>
<path d="M10899 2630 c-34 -18 -119 -104 -119 -120 0 -4 36 -10 80 -14 44 -3
91 -11 106 -16 14 -6 41 -10 60 -10 32 0 34 2 34 33 0 56 -19 105 -49 127 -36
25 -65 25 -112 0z"/>
<path d="M4620 2596 c0 -32 18 -34 221 -25 90 4 201 8 247 8 79 1 82 2 72 21
-10 19 -21 20 -275 20 l-265 0 0 -24z"/>
<path d="M4517 2604 c-9 -10 12 -34 30 -34 19 0 12 34 -8 38 -8 1 -18 0 -22
-4z"/>
<path d="M3793 2525 c-40 -48 -113 -189 -160 -305 -36 -92 -38 -100 -39 -225
-1 -108 -7 -151 -32 -255 -56 -226 -100 -503 -112 -701 -15 -272 -18 -289 -44
-290 -19 -1 -18 -2 4 -8 43 -13 55 -4 56 42 0 40 12 186 35 439 5 64 21 170
35 235 33 157 60 305 68 374 7 53 10 59 49 84 85 53 152 195 181 385 18 115
18 251 0 257 -7 2 -25 -12 -41 -32z"/>
<path d="M11217 2524 c-44 -46 -80 -114 -75 -145 2 -19 10 -10 36 46 18 38 44
84 58 102 33 43 25 42 -19 -3z"/>
<path d="M11295 2509 c-40 -35 -95 -143 -95 -186 0 -46 81 -113 135 -113 61 0
148 90 159 164 16 105 -26 166 -114 166 -41 0 -55 -5 -85 -31z"/>
<path d="M12677 2511 c-96 -5 -130 -10 -137 -21 -5 -8 -6 -18 -4 -22 3 -4 80
-8 172 -8 131 1 171 4 186 15 14 11 16 15 5 15 -11 0 -11 2 -1 9 30 19 -19 21
-221 12z"/>
<path d="M15573 2493 c-43 -20 -177 -138 -231 -202 -58 -69 -128 -184 -147
-242 -9 -27 -15 -71 -14 -98 2 -39 -3 -57 -23 -88 -63 -94 -222 -441 -263
-573 -4 -14 -27 -75 -51 -136 -24 -62 -60 -178 -80 -258 l-36 -146 -54 0 c-29
0 -55 3 -58 8 -4 7 -2 25 34 342 11 96 27 249 36 340 8 91 20 212 26 270 17
166 17 169 3 180 -17 14 -20 -11 -106 -845 -11 -110 -23 -218 -27 -239 -8 -44
-34 -68 -54 -48 -12 12 -28 102 -28 157 0 19 -3 25 -8 17 -5 -7 -9 23 -10 70
-1 81 -35 334 -46 345 -13 14 -17 -54 -7 -134 6 -48 16 -144 21 -213 6 -69 15
-143 20 -165 15 -65 13 -83 -12 -88 -13 -2 43 -6 125 -7 81 -2 155 -4 165 -4
11 -1 18 8 20 24 11 86 115 418 179 569 24 58 58 142 74 186 17 44 37 90 45
102 8 12 24 48 35 80 12 32 32 69 45 83 12 14 32 44 42 68 16 35 29 48 70 67
58 27 136 95 160 139 82 156 202 439 191 451 -3 2 -19 -3 -36 -12z"/>
<path d="M10718 2433 c12 -2 32 -2 45 0 12 2 2 4 -23 4 -25 0 -35 -2 -22 -4z"/>
<path d="M10903 2433 c9 -2 23 -2 30 0 6 3 -1 5 -18 5 -16 0 -22 -2 -12 -5z"/>
<path d="M2140 2426 c0 -3 31 -69 68 -148 140 -294 225 -398 364 -444 61 -20
72 -11 62 55 -22 158 -216 399 -415 514 -41 24 -79 35 -79 23z"/>
<path d="M10643 2423 c9 -2 25 -2 35 0 9 3 1 5 -18 5 -19 0 -27 -2 -17 -5z"/>
<path d="M10960 2426 c0 -2 9 -6 20 -9 11 -3 20 -1 20 4 0 5 -9 9 -20 9 -11 0
-20 -2 -20 -4z"/>
<path d="M10598 2413 c7 -3 16 -2 19 1 4 3 -2 6 -13 5 -11 0 -14 -3 -6 -6z"/>
<path d="M11018 2413 c6 -2 18 -2 25 0 6 3 1 5 -13 5 -14 0 -19 -2 -12 -5z"/>
<path d="M10558 2403 c7 -3 16 -2 19 1 4 3 -2 6 -13 5 -11 0 -14 -3 -6 -6z"/>
<path d="M11068 2403 c7 -3 16 -2 19 1 4 3 -2 6 -13 5 -11 0 -14 -3 -6 -6z"/>
<path d="M10455 2371 c-22 -11 -35 -19 -30 -19 14 -1 93 36 80 37 -5 0 -28 -8
-50 -18z"/>
<path d="M12813 2353 l-223 -3 0 -35 0 -35 398 2 c321 2 359 3 195 8 -111 3
-204 8 -208 11 -3 4 7 15 22 25 20 13 52 19 113 22 116 5 126 11 15 9 -49 -1
-190 -3 -312 -4z m148 -36 c-10 -9 -11 -8 -5 6 3 10 9 15 12 12 3 -3 0 -11 -7
-18z m-153 -24 c-21 -2 -57 -2 -80 0 -24 2 -7 4 37 4 44 0 63 -2 43 -4z"/>
<path d="M13520 2353 c19 -3 42 -10 50 -16 13 -10 13 -10 1 6 -9 11 -26 16
-50 15 l-36 -1 35 -4z"/>
<path d="M10325 2324 c-122 -51 -245 -116 -289 -155 -25 -22 -57 -65 -73 -97
-27 -54 -28 -64 -28 -192 0 -116 4 -143 23 -190 53 -134 145 -225 262 -260 98
-29 206 -51 290 -58 l75 -7 52 -105 53 -105 -33 -28 c-36 -31 -206 -127 -370
-208 -82 -40 -121 -67 -158 -106 -28 -30 -49 -59 -46 -66 2 -9 59 -14 198 -19
174 -7 195 -6 204 9 47 77 128 129 323 208 163 65 327 140 361 164 33 24 42
48 14 36 -10 -4 -40 -13 -68 -20 -27 -8 -72 -23 -98 -34 -75 -32 -103 -28
-149 21 -39 42 -55 78 -44 97 14 22 145 101 201 119 l59 20 -34 6 c-19 3 -68
7 -107 11 -40 3 -137 18 -216 34 -78 16 -197 37 -262 46 -226 31 -322 79 -392
196 -73 123 -113 334 -80 417 9 22 13 43 10 46 -9 8 37 56 53 56 7 0 17 6 21
14 12 20 84 67 94 60 5 -3 9 -1 9 4 0 10 21 21 145 73 50 21 83 38 75 38 -8 0
-42 -12 -75 -25z"/>
<path d="M12404 2343 c-16 -3 -20 -10 -16 -33 4 -28 7 -30 51 -30 25 0 51 4
57 8 18 12 26 45 12 54 -13 8 -66 9 -104 1z m26 -17 c0 -2 -7 -6 -15 -10 -8
-3 -15 -1 -15 4 0 6 7 10 15 10 8 0 15 -2 15 -4z"/>
<path d="M14712 2330 c0 -14 2 -19 5 -12 2 6 2 18 0 25 -3 6 -5 1 -5 -13z"/>
<path d="M12208 2333 c-10 -2 -18 -13 -18 -24 0 -17 6 -20 43 -17 34 2 42 7
42 23 0 21 -30 29 -67 18z"/>
<path d="M16272 2295 c-144 -67 -365 -253 -427 -360 -24 -40 -29 -61 -30 -110
0 -55 -4 -66 -31 -97 -49 -56 -168 -228 -197 -283 -26 -51 -137 -227 -204
-324 -21 -30 -74 -122 -118 -205 -72 -136 -83 -151 -110 -156 -16 -3 24 -6 90
-6 106 -1 112 0 52 7 -38 4 -71 10 -74 13 -3 3 19 47 49 98 30 51 64 112 76
134 11 23 67 113 124 200 57 88 114 179 127 204 14 25 43 71 65 103 23 32 50
72 61 88 11 17 39 56 63 88 23 32 42 63 42 69 0 5 20 12 45 15 82 12 137 52
235 173 100 122 250 338 250 361 0 19 -29 16 -88 -12z"/>
<path d="M13493 2293 c9 -2 25 -2 35 0 9 3 1 5 -18 5 -19 0 -27 -2 -17 -5z"/>
<path d="M10774 2240 c-29 -11 -81 -77 -87 -109 -12 -63 55 -136 124 -135 52
2 84 27 110 89 21 47 28 55 52 55 37 0 34 17 -5 33 -18 8 -55 28 -82 46 -51
32 -75 36 -112 21z m56 -80 c0 -26 -3 -30 -29 -30 -35 0 -44 18 -23 43 25 28
52 22 52 -13z"/>
<path d="M14652 2220 c0 -14 2 -19 5 -12 2 6 2 18 0 25 -3 6 -5 1 -5 -13z"/>
<path d="M11520 2099 c73 -72 110 -104 110 -97 0 3 -39 40 -87 83 -76 67 -79
69 -23 14z"/>
<path d="M14771 2069 c-11 -34 -19 -64 -17 -66 2 -2 13 24 25 58 11 34 19 64
17 66 -2 2 -13 -24 -25 -58z"/>
<path d="M10042 2068 c-32 -32 2 -88 54 -88 58 1 84 49 46 83 -22 20 -83 22
-100 5z"/>
<path d="M8001 2014 c0 -11 3 -14 6 -6 3 7 2 16 -1 19 -3 4 -6 -2 -5 -13z"/>
<path d="M14198 1993 c7 -3 16 -2 19 1 4 3 -2 6 -13 5 -11 0 -14 -3 -6 -6z"/>
<path d="M11659 1976 c13 -16 51 -41 51 -33 0 2 -15 14 -32 27 -21 15 -28 17
-19 6z"/>
<path d="M14300 1913 c29 -35 55 -63 57 -63 9 0 -37 57 -73 90 -28 26 -24 19
16 -27z"/>
<path d="M11734 1926 c11 -9 24 -16 30 -16 12 0 7 5 -24 19 -24 11 -24 11 -6
-3z"/>
<path d="M12313 1913 c9 -2 23 -2 30 0 6 3 -1 5 -18 5 -16 0 -22 -2 -12 -5z"/>
<path d="M12668 1903 c7 -3 16 -2 19 1 4 3 -2 6 -13 5 -11 0 -14 -3 -6 -6z"/>
<path d="M1450 1864 c0 -17 52 -74 62 -68 6 4 8 2 4 -4 -7 -12 110 -128 125
-124 6 1 8 -2 5 -7 -8 -12 67 -86 129 -127 56 -37 153 -74 197 -74 15 0 28 -5
28 -10 0 -6 33 -45 73 -88 102 -107 282 -330 354 -437 34 -49 75 -108 92 -131
l30 -41 -322 -6 c-177 -4 -751 -7 -1274 -7 -524 0 -953 -3 -953 -7 0 -5 465
-6 1032 -4 568 2 1158 3 1311 3 l278 0 -23 23 c-13 13 -41 48 -63 80 -103 147
-162 225 -214 285 -31 36 -78 92 -103 125 -26 33 -83 96 -127 140 -58 57 -81
87 -81 105 -1 53 -79 178 -102 163 -6 -3 -8 -2 -5 4 11 17 -82 92 -168 135
-93 47 -285 95 -285 72z m180 -174 c0 -5 -2 -10 -4 -10 -3 0 -8 5 -11 10 -3 6
-1 10 4 10 6 0 11 -4 11 -10z m335 -110 c14 -28 23 -55 20 -60 -3 -5 -1 -11 5
-15 5 -3 10 -13 10 -21 0 -21 -48 -18 -95 6 -22 11 -43 20 -48 20 -18 0 -35
27 -26 41 7 11 9 11 9 -3 0 -10 7 -18 16 -18 8 0 12 5 9 10 -3 6 1 10 10 10 9
0 19 9 22 20 3 11 9 20 13 20 4 0 10 9 13 20 8 30 14 25 42 -30z m-175 -26 c0
-2 -9 0 -20 6 -11 6 -20 13 -20 16 0 2 9 0 20 -6 11 -6 20 -13 20 -16z"/>
<path d="M1930 1605 c0 -8 4 -15 10 -15 5 0 7 7 4 15 -4 8 -8 15 -10 15 -2 0
-4 -7 -4 -15z"/>
<path d="M12820 1858 c9 -9 140 -67 140 -63 0 6 -89 51 -120 60 -14 4 -23 5
-20 3z"/>
<path d="M2880 1798 c0 -19 10 -37 32 -55 61 -53 75 -73 118 -168 24 -52 45
-94 47 -92 6 7 -75 176 -107 222 -17 25 -35 43 -41 40 -5 -3 -7 0 -4 7 3 7 -6
27 -20 43 l-24 30 -1 -27z"/>
<path d="M14231 1804 c0 -11 3 -14 6 -6 3 7 2 16 -1 19 -3 4 -6 -2 -5 -13z"/>
<path d="M2636 1785 c4 -17 26 -68 50 -115 149 -296 285 -645 339 -872 12 -51
11 -57 -4 -61 -9 -3 4 -5 28 -6 37 -1 42 1 36 17 -4 9 -22 67 -40 127 -82 275
-144 431 -271 690 -56 116 -112 219 -124 230 l-21 19 7 -29z"/>
<path d="M8620 1735 c-149 -33 -255 -112 -338 -247 -101 -168 -104 -332 -9
-513 42 -81 141 -180 187 -188 20 -4 53 -17 75 -30 37 -20 52 -22 210 -22 160
0 172 1 198 22 16 12 50 29 77 38 39 13 57 27 85 66 19 27 42 52 50 55 8 4 15
18 15 33 0 15 16 48 39 79 33 44 41 62 47 118 3 37 4 106 2 154 -5 74 -11 99
-42 163 -24 50 -51 88 -82 116 -56 49 -184 130 -233 147 -60 21 -208 25 -281
9z m289 -108 c8 -10 7 -37 -5 -102 -18 -105 -34 -154 -84 -261 -88 -190 -264
-385 -363 -401 -30 -4 -35 0 -83 64 -28 37 -57 78 -63 91 -22 41 -30 129 -20
194 10 62 34 116 47 103 3 -3 18 16 32 44 28 54 100 120 170 153 25 12 61 32
80 44 19 12 73 33 120 47 139 41 152 43 169 24z m71 -5 c42 -26 166 -168 192
-221 17 -34 23 -71 28 -160 7 -134 3 -163 -36 -226 -48 -77 -82 -113 -168
-171 -55 -38 -73 -47 -55 -27 56 59 90 131 115 240 29 129 30 229 5 365 -20
107 -33 133 -86 174 -19 14 -35 30 -35 35 0 13 6 11 40 -9z"/>
<path d="M13030 1746 c0 -2 8 -10 18 -17 15 -13 16 -12 3 4 -13 16 -21 21 -21
13z"/>
<path d="M13070 1716 c0 -2 8 -10 18 -17 15 -13 16 -12 3 4 -13 16 -21 21 -21
13z"/>
<path d="M16620 1690 c-175 -45 -328 -132 -341 -195 -4 -17 -7 -22 -8 -12 0
10 -6 15 -12 12 -7 -5 -6 -12 4 -23 8 -10 18 -27 21 -39 4 -13 14 -23 22 -23
8 0 14 -7 14 -16 0 -9 5 -12 12 -8 8 5 9 2 5 -9 -8 -23 -5 -22 67 12 79 38
366 288 366 319 0 17 -21 15 -150 -18z m124 -5 c-4 -8 -10 -13 -14 -10 -5 3
-11 1 -15 -4 -3 -6 -13 -7 -22 -4 -11 4 -14 3 -9 -5 5 -8 -3 -12 -26 -11 -20
1 -25 3 -14 6 15 4 16 7 5 14 -10 6 -8 9 11 10 45 1 70 6 77 12 10 11 13 8 7
-8z"/>
<path d="M14431 1664 c0 -11 3 -14 6 -6 3 7 2 16 -1 19 -3 4 -6 -2 -5 -13z"/>
<path d="M13150 1637 c0 -2 15 -16 33 -33 l32 -29 -29 33 c-28 30 -36 37 -36
29z"/>
<path d="M2902 1610 c0 -14 2 -19 5 -12 2 6 2 18 0 25 -3 6 -5 1 -5 -13z"/>
<path d="M14441 1614 c0 -11 3 -14 6 -6 3 7 2 16 -1 19 -3 4 -6 -2 -5 -13z"/>
<path d="M15339 1583 c-13 -16 -12 -17 4 -4 9 7 17 15 17 17 0 8 -8 3 -21 -13z"/>
<path d="M2350 1509 c27 -74 40 -102 40 -87 0 3 -7 25 -15 48 -19 53 -19 50 6
50 12 0 44 -18 73 -41 l51 -41 -55 51 c-30 28 -61 48 -68 46 -7 -3 -11 -1 -7
4 3 5 -8 19 -24 31 l-30 21 29 -82z"/>
<path d="M2912 1560 c0 -14 2 -19 5 -12 2 6 2 18 0 25 -3 6 -5 1 -5 -13z"/>
<path d="M3864 1517 c-22 -23 -46 -51 -54 -62 -7 -11 7 3 33 30 43 47 46 48
48 25 1 -21 2 -19 9 10 5 19 7 36 6 37 -1 2 -20 -16 -42 -40z"/>
<path d="M13240 1530 c12 -16 24 -30 26 -30 3 0 -4 14 -16 30 -12 17 -24 30
-26 30 -3 0 4 -13 16 -30z"/>
<path d="M15308 1543 c-23 -27 -80 -113 -74 -113 2 0 25 29 50 65 44 64 54 82
24 48z"/>
<path d="M2920 1520 c0 -18 51 -162 56 -157 2 2 -9 42 -26 88 -16 46 -29 77
-30 69z"/>
<path d="M12728 1503 c6 -2 18 -2 25 0 6 3 1 5 -13 5 -14 0 -19 -2 -12 -5z"/>
<path d="M15380 1422 c-58 -134 -90 -215 -87 -218 2 -2 31 62 66 142 34 81 60
148 58 150 -2 2 -18 -31 -37 -74z"/>
<path d="M12609 1470 c-63 -33 -136 -108 -186 -192 -48 -81 -93 -189 -93 -226
0 -10 -7 -39 -16 -65 -13 -39 -27 -54 -97 -105 -45 -33 -98 -67 -117 -77 -70
-36 -267 -29 -312 11 -16 15 -15 19 13 70 29 51 28 74 -2 38 -31 -37 -212
-110 -374 -149 -93 -23 -118 -25 -357 -25 l-258 0 0 24 c0 27 -36 59 -54 49
-6 -3 3 8 19 26 17 17 47 41 68 52 20 10 37 21 37 24 0 6 -39 -9 -97 -38 -26
-13 -78 -34 -115 -46 -76 -25 -112 -50 -133 -92 l-16 -29 44 0 c24 0 49 6 56
12 11 11 12 10 6 -1 -7 -12 9 -12 96 -6 57 5 672 9 1366 9 l1262 1 21 23 c12
13 33 22 50 22 38 0 134 92 144 137 9 41 -16 91 -49 99 -27 7 -80 2 -107 -11
-15 -6 -18 -2 -18 26 0 49 -7 31 -13 -31 -6 -71 -43 -168 -77 -201 -24 -24
-36 -28 -136 -35 -60 -5 -219 -9 -353 -9 l-243 0 -43 50 c-106 121 -147 243
-125 367 21 120 115 243 225 294 28 13 43 24 35 23 -8 0 -31 -8 -51 -19z"/>
<path d="M14461 1464 c0 -11 3 -14 6 -6 3 7 2 16 -1 19 -3 4 -6 -2 -5 -13z"/>
<path d="M13295 1433 c15 -36 25 -52 25 -41 0 11 -30 78 -35 78 -3 0 2 -17 10
-37z"/>
<path d="M12705 1435 c-39 -17 -21 -18 25 0 19 7 28 14 20 14 -8 0 -28 -6 -45
-14z"/>
<path d="M2510 1426 c0 -2 8 -10 18 -17 15 -13 16 -12 3 4 -13 16 -21 21 -21
13z"/>
<path d="M3777 1408 c-110 -179 -121 -209 -167 -453 -38 -197 -36 -190 -63
-203 -13 -7 -16 -11 -7 -11 8 0 21 3 27 7 7 4 31 96 53 204 37 182 67 285 92
315 6 7 8 13 5 13 -3 0 14 34 38 75 25 41 43 75 40 75 -2 0 -11 -10 -18 -22z"/>
<path d="M12612 1390 c-23 -17 -42 -33 -42 -37 0 -3 8 1 18 9 9 9 33 25 52 37
19 11 30 21 24 21 -6 0 -30 -14 -52 -30z"/>
<path d="M2396 1392 c8 -30 44 -112 49 -112 5 0 -6 29 -34 90 -12 25 -18 34
-15 22z"/>
<path d="M3871 1394 c0 -11 3 -14 6 -6 3 7 2 16 -1 19 -3 4 -6 -2 -5 -13z"/>
<path d="M16285 1390 c-3 -5 -1 -10 4 -10 6 0 11 5 11 10 0 6 -2 10 -4 10 -3
0 -8 -4 -11 -10z"/>
<path d="M16180 1375 c0 -8 4 -15 10 -15 5 0 7 7 4 15 -4 8 -8 15 -10 15 -2 0
-4 -7 -4 -15z"/>
<path d="M13324 1369 c2 -10 12 -53 22 -98 10 -44 19 -79 22 -77 6 7 -28 158
-40 176 -8 13 -9 12 -4 -1z"/>
<path d="M3111 1315 c0 -33 5 -72 13 -86 7 -14 16 -38 20 -53 4 -16 8 -27 10
-25 2 2 -7 54 -19 114 -23 110 -23 110 -24 50z"/>
<path d="M3861 1354 c0 -11 3 -14 6 -6 3 7 2 16 -1 19 -3 4 -6 -2 -5 -13z"/>
<path d="M2570 1356 c0 -2 8 -10 18 -17 15 -13 16 -12 3 4 -13 16 -21 21 -21
13z"/>
<path d="M2981 1345 c0 -5 8 -26 19 -45 11 -19 19 -30 19 -25 0 6 -8 26 -19
45 -11 19 -19 31 -19 25z"/>
<path d="M3846 1304 c-4 -14 -5 -28 -3 -31 3 -2 8 8 11 23 4 14 5 28 3 31 -3
2 -8 -8 -11 -23z"/>
<path d="M12519 1303 c-13 -16 -12 -17 4 -4 16 13 21 21 13 21 -2 0 -10 -8
-17 -17z"/>
<path d="M16115 1300 c-10 -11 -50 -41 -89 -67 -67 -43 -313 -282 -338 -328
-13 -24 78 58 192 174 47 48 119 112 160 142 76 57 107 86 98 94 -3 3 -13 -4
-23 -15z"/>
<path d="M2636 1268 c34 -57 151 -218 129 -178 -16 29 -127 190 -132 190 -2 0
-1 -6 3 -12z"/>
<path d="M3020 1257 c0 -4 6 -20 14 -35 15 -29 67 -199 107 -354 13 -48 25
-85 27 -83 5 5 -65 279 -90 350 -21 61 -57 136 -58 122z"/>
<path d="M15035 1108 c-49 -79 -104 -165 -122 -191 -29 -42 -31 -46 -10 -31
24 19 32 31 89 134 17 30 50 85 73 121 48 74 68 109 62 109 -2 0 -44 -64 -92
-142z"/>
<path d="M3805 1158 c-9 -35 -46 -142 -80 -238 -35 -96 -60 -179 -55 -183 4
-5 31 -6 61 -4 l54 3 -57 2 -58 2 21 53 c77 198 146 413 136 423 -2 2 -12 -24
-22 -58z"/>
<path d="M13373 1125 c0 -22 2 -30 4 -17 2 12 2 30 0 40 -3 9 -5 -1 -4 -23z"/>
<path d="M3161 1133 c-1 -6 15 -51 34 -100 19 -48 34 -82 35 -76 0 7 -12 43
-26 80 -36 96 -43 110 -43 96z"/>
<path d="M12442 1055 c0 -16 2 -22 5 -12 2 9 2 23 0 30 -3 6 -5 -1 -5 -18z"/>
<path d="M2839 935 c39 -77 73 -153 77 -168 l7 -28 -137 2 c-75 1 -139 -1
-143 -4 -3 -4 67 -7 156 -7 128 0 160 3 151 13 -5 6 -44 79 -85 162 -42 82
-80 154 -86 160 -6 5 21 -53 60 -130z"/>
<path d="M15594 1030 c-10 -11 -44 -28 -74 -38 l-55 -19 41 0 c32 0 50 7 80
32 22 18 37 36 33 39 -3 3 -14 -3 -25 -14z"/>
<path d="M4010 1005 c-12 -31 -6 -45 19 -45 43 0 55 62 13 68 -16 3 -25 -4
-32 -23z"/>
<path d="M11100 1015 c-14 -8 -20 -14 -15 -14 6 0 21 6 35 14 14 8 21 14 15
14 -5 0 -21 -6 -35 -14z"/>
<path d="M13982 975 c0 -16 2 -22 5 -12 2 9 2 23 0 30 -3 6 -5 -1 -5 -18z"/>
<path d="M3906 972 c-4 -13 -5 -26 -2 -29 10 -11 18 4 14 29 l-4 23 -8 -23z"/>
<path d="M15738 913 c7 -3 16 -2 19 1 4 3 -2 6 -13 5 -11 0 -14 -3 -6 -6z"/>
<path d="M3241 894 c0 -11 3 -14 6 -6 3 7 2 16 -1 19 -3 4 -6 -2 -5 -13z"/>
<path d="M3862 877 c-17 -21 -42 -75 -41 -89 0 -7 9 6 19 30 11 23 23 42 28
42 4 0 21 -13 37 -30 34 -36 42 -33 21 9 -20 38 -50 56 -64 38z"/>
<path d="M3252 850 c0 -14 4 -36 8 -50 6 -20 8 -21 8 -5 0 11 -4 34 -8 50 -7
27 -8 27 -8 5z"/>
<path d="M4102 770 c7 -10 14 -18 15 -16 6 6 -9 36 -18 36 -5 0 -4 -9 3 -20z"/>
<path d="M3271 754 c0 -11 3 -14 6 -6 3 7 2 16 -1 19 -3 4 -6 -2 -5 -13z"/>
<path d="M3858 743 c12 -2 30 -2 40 0 9 3 -1 5 -23 4 -22 0 -30 -2 -17 -4z"/>
<path d="M7478 743 c23 -2 61 -2 85 0 23 2 4 4 -43 4 -47 0 -66 -2 -42 -4z"/>
<path d="M7728 743 c50 -2 134 -2 185 0 50 1 9 3 -93 3 -102 0 -143 -2 -92 -3z"/>
<path d="M9092 737 c23 -8 898 -10 906 -2 3 3 -165 5 -374 6 -208 0 -418 1
-466 2 -51 1 -78 -1 -66 -6z"/>
<path d="M14814 739 c-13 -5 -7 -8 24 -8 23 -1 42 1 42 3 0 8 -48 12 -66 5z"/>
<path d="M15633 743 c26 -2 68 -2 95 0 26 2 4 3 -48 3 -52 0 -74 -1 -47 -3z"/>
<path d="M15845 740 c39 -4 99 -7 135 -7 l65 0 -75 7 c-41 4 -102 7 -135 7
l-60 0 70 -7z"/>
<path d="M8268 733 c39 -2 105 -2 145 0 39 1 7 3 -73 3 -80 0 -112 -2 -72 -3z"/>
<path d="M13643 733 c26 -2 67 -2 90 0 23 2 2 3 -48 3 -49 0 -68 -1 -42 -3z"/>
<path d="M16068 733 c7 -3 16 -2 19 1 4 3 -2 6 -13 5 -11 0 -14 -3 -6 -6z"/>
<path d="M16208 733 c61 -2 163 -2 225 0 61 1 11 3 -113 3 -124 0 -174 -2
-112 -3z"/>
<path d="M16728 733 c6 -2 18 -2 25 0 6 3 1 5 -13 5 -14 0 -19 -2 -12 -5z"/>
<path d="M17128 733 c138 -2 366 -2 505 0 138 1 25 2 -253 2 -278 0 -391 -1
-252 -2z"/>
<path d="M4463 613 c15 -2 39 -2 55 0 15 2 2 4 -28 4 -30 0 -43 -2 -27 -4z"/>
<path d="M5928 603 c6 -2 18 -2 25 0 6 3 1 5 -13 5 -14 0 -19 -2 -12 -5z"/>
<path d="M6023 603 c26 -2 68 -2 95 0 26 2 4 3 -48 3 -52 0 -74 -1 -47 -3z"/>
<path d="M12713 603 c54 -2 139 -2 190 0 51 1 7 3 -98 3 -104 0 -146 -2 -92
-3z"/>
<path d="M12398 593 c12 -2 30 -2 40 0 9 3 -1 5 -23 4 -22 0 -30 -2 -17 -4z"/>
<path d="M12372 547 c10 -8 16 -16 13 -18 -2 -3 6 -6 18 -7 37 -4 472 0 476 4
2 2 -74 4 -170 4 -166 1 -291 10 -334 25 -19 6 -19 6 -3 -8z"/>
<path d="M7518 543 c23 -2 61 -2 85 0 23 2 4 4 -43 4 -47 0 -66 -2 -42 -4z"/>
<path d="M8488 513 c100 -2 264 -2 365 0 100 1 18 2 -183 2 -201 0 -283 -1
-182 -2z"/>
<path d="M9143 513 c59 -2 155 -2 215 0 59 1 10 3 -108 3 -118 0 -167 -2 -107
-3z"/>
<path d="M9697 513 c-3 -5 36 -7 86 -5 141 4 154 9 30 11 -61 0 -114 -2 -116
-6z"/>
<path d="M10208 513 c28 -2 76 -2 105 0 28 2 5 3 -53 3 -58 0 -81 -1 -52 -3z"/>
<path d="M12178 503 c45 -2 119 -2 165 0 45 1 8 3 -83 3 -91 0 -128 -2 -82 -3z"/>
<path d="M8328 443 c23 -2 59 -2 80 0 20 2 1 4 -43 4 -44 0 -61 -2 -37 -4z"/>
<path d="M9373 443 c54 -2 139 -2 190 0 51 1 7 3 -98 3 -104 0 -146 -2 -92 -3z"/>
<path d="M9693 438 c7 -4 138 -7 292 -6 299 2 265 6 -87 10 -119 2 -211 0
-205 -4z"/>
<path d="M12138 433 c23 -2 61 -2 85 0 23 2 4 4 -43 4 -47 0 -66 -2 -42 -4z"/>
</g>
</svg>
